<svg xmlns="http://www.w3.org/2000/svg" viewBox="0 0 1872.909 344.309">
  <defs>
    <style>
      .e48678e3-e2ea-4043-9ad9-2dcef88ef9b1 {
        fill: #fff;
      }
    </style>
  </defs>
  <g id="ac1a2397-930f-4086-a261-2c2af2354957" data-name="Layer 2">
    <g id="b101d4da-b4c0-42f3-8ded-184d1caf325d" data-name="Layer 3">
      <g>
        <g>
          <g>
            <g>
              <path d="M93.155,201.641A85.96,85.96,0,0,1,58.7,194.617,88.012,88.012,0,0,1,11.944,147.7,86.523,86.523,0,0,1,5,113.321a85.343,85.343,0,0,1,6.952-34.227A92.184,92.184,0,0,1,30.693,51.133a88.019,88.019,0,0,1,28-19.1,87.429,87.429,0,0,1,70.865.963,90.254,90.254,0,0,1,28.922,21.151,5,5,0,0,1-.345,7.054L139.918,77.762a5,5,0,0,1-6.966-.233,61,61,0,0,0-18.075-12.858,50.69,50.69,0,0,0-21.722-4.824,51.529,51.529,0,0,0-20.85,4.233A55.2,55.2,0,0,0,55.284,75.656a53.1,53.1,0,0,0-15.437,37.665,53.8,53.8,0,0,0,4.082,20.988,52.7,52.7,0,0,0,49.226,32.485,5,5,0,0,1,5,5v24.847A5,5,0,0,1,93.155,201.641Z"/>
              <path d="M93.155,30a79.968,79.968,0,0,1,34.289,7.521A84.87,84.87,0,0,1,154.776,57.5L136.555,74.062a65.688,65.688,0,0,0-19.547-13.914,55.405,55.405,0,0,0-23.853-5.3A56.247,56.247,0,0,0,70.3,59.5,59.907,59.907,0,0,0,51.743,72.126a58.093,58.093,0,0,0-16.9,41.195,58.5,58.5,0,0,0,4.473,22.927,57.7,57.7,0,0,0,53.835,35.546v24.847a80.631,80.631,0,0,1-32.467-6.61,83.013,83.013,0,0,1-44.15-44.305A81.19,81.19,0,0,1,10,113.321a79.988,79.988,0,0,1,6.538-32.234A86.775,86.775,0,0,1,34.262,54.635,82.667,82.667,0,0,1,60.688,36.616,80.619,80.619,0,0,1,93.155,30m0-10a90.925,90.925,0,0,0-36.45,7.443A93.009,93.009,0,0,0,27.121,47.634,97.163,97.163,0,0,0,7.366,77.1,90.3,90.3,0,0,0,0,113.321a91.493,91.493,0,0,0,7.351,36.354A93.005,93.005,0,0,0,56.707,199.2a90.916,90.916,0,0,0,36.448,7.437,10,10,0,0,0,10-10V171.794a10,10,0,0,0-10-10A47.665,47.665,0,0,1,48.537,132.37a48.855,48.855,0,0,1-3.69-19.049A48.088,48.088,0,0,1,58.825,79.187,50.215,50.215,0,0,1,74.312,68.659a46.571,46.571,0,0,1,18.843-3.812,45.11,45.11,0,0,1,19.6,4.351A56.024,56.024,0,0,1,129.349,81a10,10,0,0,0,13.932.466L161.5,64.9a10,10,0,0,0,.689-14.108,95.193,95.193,0,0,0-30.511-22.325A90.232,90.232,0,0,0,93.155,20Z"/>
            </g>
            <g>
              <path d="M263.105,200.647a5,5,0,0,1-5-5V170.8a5,5,0,0,1,5-5,52.146,52.146,0,0,0,48.577-31.921,51.458,51.458,0,0,0,4.068-20.393,52.317,52.317,0,0,0-52.645-52.645,51.46,51.46,0,0,0-20.394,4.068,52.469,52.469,0,0,0-31.92,48.577,5,5,0,0,1-5,5H180.943a5,5,0,0,1-5-5,85.669,85.669,0,0,1,6.865-33.939,88.177,88.177,0,0,1,46.5-46.681,84.468,84.468,0,0,1,33.793-6.872,85.659,85.659,0,0,1,33.938,6.864,87.733,87.733,0,0,1,46.689,46.688,88.152,88.152,0,0,1,0,68.212,86.587,86.587,0,0,1-18.81,27.763,87.923,87.923,0,0,1-61.817,25.126Z"/>
              <path d="M263.105,30.994a80.312,80.312,0,0,1,31.97,6.46,82.731,82.731,0,0,1,44.062,44.062,83.16,83.16,0,0,1,0,64.272,81.277,81.277,0,0,1-17.724,26.172,82.921,82.921,0,0,1-58.308,23.687V170.8a57.147,57.147,0,0,0,53.173-34.951,56.174,56.174,0,0,0,4.472-22.363,57.316,57.316,0,0,0-57.645-57.645,56.181,56.181,0,0,0-22.363,4.472,57.469,57.469,0,0,0-34.951,53.173H180.943a80.313,80.313,0,0,1,6.461-31.97,83.175,83.175,0,0,1,43.9-44.062,79.123,79.123,0,0,1,31.805-6.46m0-10a89.446,89.446,0,0,0-35.781,7.284,93.177,93.177,0,0,0-49.111,49.3,90.642,90.642,0,0,0-7.27,35.91,10,10,0,0,0,10,10h24.848a10,10,0,0,0,10-10,47.147,47.147,0,0,1,28.89-43.981,46.5,46.5,0,0,1,18.424-3.664,47.317,47.317,0,0,1,47.645,47.645,46.491,46.491,0,0,1-3.664,18.424,47.471,47.471,0,0,1-43.981,28.89,10,10,0,0,0-10,10v24.847a10,10,0,0,0,10,10,91.756,91.756,0,0,0,85.224-55.921,93.157,93.157,0,0,0,0-72.148,92.736,92.736,0,0,0-49.315-49.315,90.633,90.633,0,0,0-35.909-7.269Z"/>
            </g>
            <g>
              <path d="M453.6,200.979a5,5,0,0,1-5-5V171.794a5,5,0,0,1,5-5c3.541,0,8.5.11,15.159.334q1.305.045,2.6.045a75.108,75.108,0,0,0,15.366-1.6,35.979,35.979,0,0,0,14.5-6.38c3.376-2.556,5.017-6.67,5.017-12.579,0-4.329-.972-7.735-2.888-10.125a20.861,20.861,0,0,0-8.213-6.158,38.827,38.827,0,0,0-11.764-2.924c-4.6-.425-8.972-.64-12.983-.64h-42.5a84.594,84.594,0,0,1-25.062-3.523,60.26,60.26,0,0,1-19.9-10.281,47.137,47.137,0,0,1-13.166-16.422,48.493,48.493,0,0,1-4.649-21.316c0-9.628,2.444-17.842,7.263-24.413a50.88,50.88,0,0,1,17.976-15.186,86.578,86.578,0,0,1,23.381-7.894,131.486,131.486,0,0,1,24.627-2.4h97.732a5,5,0,0,1,5,5V55.178a5,5,0,0,1-4.969,5l-108.061.666c-1.957.23-4.71.606-8.187,1.118a51.53,51.53,0,0,0-10.108,2.585,23.45,23.45,0,0,0-7.929,4.817,8.274,8.274,0,0,0-2.541,6.52c0,6.068,2.1,9.7,6.8,11.793,5.864,2.606,13.171,4.033,21.719,4.244H452.6c3.973,0,8.8.11,14.767.335a156.194,156.194,0,0,1,18.489,1.876,127.57,127.57,0,0,1,19.145,4.64,59.506,59.506,0,0,1,17.9,9.381A48.029,48.029,0,0,1,536.034,123.8c3.355,6.315,5.057,14.046,5.057,22.979,0,8.73-1.708,16.308-5.077,22.525a47.685,47.685,0,0,1-12.952,15.29,62.9,62.9,0,0,1-17.452,9.33,110.68,110.68,0,0,1-19.086,4.842,153.562,153.562,0,0,1-18.321,1.876C462.577,200.866,457.662,200.979,453.6,200.979Z"/>
              <path d="M536.091,30.331V55.178l-108.334.668q-2.981.342-8.613,1.17a56.155,56.155,0,0,0-11.1,2.837,28.306,28.306,0,0,0-9.607,5.844A13.224,13.224,0,0,0,394.3,75.884q0,12.02,9.774,16.363t23.687,4.674H452.6q5.964,0,14.578.332a150.351,150.351,0,0,1,17.889,1.817,121.752,121.752,0,0,1,18.388,4.457,54.221,54.221,0,0,1,16.4,8.588,42.859,42.859,0,0,1,11.761,14.033q4.473,8.416,4.473,20.633,0,11.889-4.473,20.142a42.5,42.5,0,0,1-11.6,13.7,57.618,57.618,0,0,1-16.068,8.583,105.216,105.216,0,0,1-18.221,4.623,147.918,147.918,0,0,1-17.724,1.816q-8.448.335-14.411.332V171.794q5.325,0,14.99.331,1.386.048,2.769.048a79.806,79.806,0,0,0,16.39-1.7,40.737,40.737,0,0,0,16.5-7.288q7-5.3,7-16.565,0-8.277-3.986-13.252a25.966,25.966,0,0,0-10.131-7.62,43.56,43.56,0,0,0-13.282-3.313q-7.145-.66-13.449-.662h-42.5a79.265,79.265,0,0,1-23.579-3.3,55.051,55.051,0,0,1-18.263-9.41A41.98,41.98,0,0,1,374.264,94.37a43.353,43.353,0,0,1-4.152-19.143q0-12.873,6.295-21.456a45.727,45.727,0,0,1,16.233-13.7,81.173,81.173,0,0,1,22.031-7.428,125.886,125.886,0,0,1,23.688-2.314h97.732m0-10H438.359a136.505,136.505,0,0,0-25.567,2.492,91.569,91.569,0,0,0-24.729,8.359,55.86,55.86,0,0,0-19.722,16.677c-5.46,7.445-8.229,16.654-8.229,27.368a53.451,53.451,0,0,0,5.151,23.5,52.083,52.083,0,0,0,14.546,18.147,65.223,65.223,0,0,0,21.538,11.147,89.54,89.54,0,0,0,26.545,3.748h42.5c3.859,0,8.074.208,12.529.62a33.81,33.81,0,0,1,10.244,2.538,15.96,15.96,0,0,1,6.292,4.7c1.181,1.473,1.783,3.827,1.783,6.99,0,6.295-2.2,7.963-3.034,8.591a30.6,30.6,0,0,1-12.511,5.474,70.148,70.148,0,0,1-14.341,1.492c-.8,0-1.619-.014-2.423-.042-6.724-.226-11.738-.337-15.336-.337a10,10,0,0,0-10,10v24.185a10,10,0,0,0,10,10c4.129,0,9.111-.114,14.806-.339A158.749,158.749,0,0,0,487.32,203.7a115.7,115.7,0,0,0,19.944-5.059A67.9,67.9,0,0,0,526.1,188.569a52.628,52.628,0,0,0,14.313-16.882c3.77-6.955,5.681-15.335,5.681-24.906,0-9.76-1.9-18.281-5.642-25.326a52.994,52.994,0,0,0-14.487-17.261,64.471,64.471,0,0,0-19.4-10.173,132.328,132.328,0,0,0-19.9-4.824,160.938,160.938,0,0,0-19.09-1.937c-6.037-.228-10.929-.339-14.965-.339H427.882c-7.862-.2-14.507-1.482-19.752-3.812-2.021-.9-3.834-2.125-3.834-7.225,0-1.982.588-2.527.94-2.853a18.228,18.228,0,0,1,6.251-3.789,46.477,46.477,0,0,1,9.128-2.335c3.26-.481,5.867-.839,7.756-1.064l107.782-.665a10,10,0,0,0,9.938-10V30.331a10,10,0,0,0-10-10Z"/>
            </g>
            <g>
              <path d="M844.194,200.979a5,5,0,0,1-5-5V112.824A53.363,53.363,0,0,0,835.1,91.913a51.11,51.11,0,0,0-11.349-16.758A54.546,54.546,0,0,0,806.7,63.929a53.775,53.775,0,0,0-20.982-4.082,51.779,51.779,0,0,0-20.465,4.07,55.1,55.1,0,0,0-16.912,11.239,53.268,53.268,0,0,0-11.538,16.818,51.565,51.565,0,0,0-4.227,20.85v83.155a5,5,0,0,1-5,5H702.731a5,5,0,0,1-5-5V112.824a53.515,53.515,0,0,0-4.08-20.917,51.337,51.337,0,0,0-27.981-27.98,55.656,55.656,0,0,0-41.831,0,54.374,54.374,0,0,0-17,11.225,51.082,51.082,0,0,0-11.314,16.757,53.517,53.517,0,0,0-4.079,20.916,5,5,0,0,1-5,5H561.6a5,5,0,0,1-5-5,84.678,84.678,0,0,1,7.048-34.314,88.985,88.985,0,0,1,46.817-46.559A85.609,85.609,0,0,1,644.755,25a87.453,87.453,0,0,1,70.663,35.241,92.484,92.484,0,0,1,27.026-23.788A84.792,84.792,0,0,1,785.886,25a86,86,0,0,1,34.458,7.029,89.3,89.3,0,0,1,46.978,46.71,88.554,88.554,0,0,1,7.381,34.153c0,.046-.661,83.127-.661,83.127a5,5,0,0,1-5,4.96Z"/>
              <path d="M785.886,30a80.653,80.653,0,0,1,32.467,6.616,84.3,84.3,0,0,1,44.394,44.139,83.219,83.219,0,0,1,6.957,32.234l-.663,82.99H844.194V112.824a58.056,58.056,0,0,0-4.488-22.86,55.835,55.835,0,0,0-12.459-18.386,59.285,59.285,0,0,0-18.6-12.258,58.487,58.487,0,0,0-22.921-4.473,56.468,56.468,0,0,0-22.43,4.473,59.768,59.768,0,0,0-18.438,12.258,57.961,57.961,0,0,0-12.626,18.386,56.286,56.286,0,0,0-4.648,22.86v83.155H702.731V112.824a58.242,58.242,0,0,0-4.472-22.86A56.343,56.343,0,0,0,667.614,59.32a60.649,60.649,0,0,0-45.719,0,59.045,59.045,0,0,0-18.552,12.258,55.8,55.8,0,0,0-12.424,18.386,58.224,58.224,0,0,0-4.472,22.86H561.6a79.34,79.34,0,0,1,6.626-32.3,83.985,83.985,0,0,1,44.228-43.984A80.27,80.27,0,0,1,644.755,30,81.294,81.294,0,0,1,686,40.767,80.338,80.338,0,0,1,715.32,69.093a86.752,86.752,0,0,1,29.651-28.326A79.49,79.49,0,0,1,785.886,30m0-10A89.718,89.718,0,0,0,739.92,32.137a98.022,98.022,0,0,0-24.443,20.13A92.689,92.689,0,0,0,690.989,32.1,91.537,91.537,0,0,0,644.755,20a90.588,90.588,0,0,0-36.281,7.364,93.992,93.992,0,0,0-49.4,49.135,89.642,89.642,0,0,0-7.471,36.325,10,10,0,0,0,10,10h24.847a10,10,0,0,0,10-10,48.541,48.541,0,0,1,3.687-18.974A46.093,46.093,0,0,1,610.34,78.722a49.35,49.35,0,0,1,15.441-10.188,50.663,50.663,0,0,1,37.947,0,46.343,46.343,0,0,1,25.317,25.318,48.549,48.549,0,0,1,3.686,18.972v83.155a10,10,0,0,0,10,10h24.848a10,10,0,0,0,10-10V112.824a46.6,46.6,0,0,1,3.806-18.843,48.275,48.275,0,0,1,10.454-15.249A50.107,50.107,0,0,1,767.22,68.516a46.782,46.782,0,0,1,18.5-3.669,48.832,48.832,0,0,1,19.043,3.69,49.591,49.591,0,0,1,15.5,10.2A46.118,46.118,0,0,1,830.5,93.863a48.377,48.377,0,0,1,3.7,18.961v83.155a10,10,0,0,0,10,10h24.847a10,10,0,0,0,10-9.92l.663-82.99c0-.091,0-.183,0-.274a93.522,93.522,0,0,0-7.8-36.068,94.292,94.292,0,0,0-49.563-49.284A90.967,90.967,0,0,0,785.886,20Z"/>
            </g>
            <g>
              <rect x="888.557" y="25.994" width="34.847" height="175.647" rx="5"/>
              <path d="M918.4,30.994V196.641H893.557V30.994H918.4m0-10H893.557a10,10,0,0,0-10,10V196.641a10,10,0,0,0,10,10H918.4a10,10,0,0,0,10-10V30.994a10,10,0,0,0-10-10Z"/>
            </g>
            <g>
              <path d="M1026.07,201.641a85.952,85.952,0,0,1-34.458-7.024A88.009,88.009,0,0,1,944.859,147.7a86.519,86.519,0,0,1-6.943-34.379A85.334,85.334,0,0,1,944.867,79.1a92.213,92.213,0,0,1,18.741-27.962,88.013,88.013,0,0,1,28.005-19.1,87.427,87.427,0,0,1,70.864.963A90.2,90.2,0,0,1,1091.4,54.144a5,5,0,0,1-.345,7.053l-18.221,16.565a5,5,0,0,1-6.966-.233,61.016,61.016,0,0,0-18.075-12.858,50.686,50.686,0,0,0-21.722-4.824,51.538,51.538,0,0,0-20.851,4.233A55.2,55.2,0,0,0,988.2,75.656a53.08,53.08,0,0,0-15.438,37.665,53.822,53.822,0,0,0,4.081,20.988,52.7,52.7,0,0,0,49.227,32.485,5,5,0,0,1,5,5v24.847A5,5,0,0,1,1026.07,201.641Z"/>
              <path d="M1026.07,30a79.968,79.968,0,0,1,34.289,7.521A84.87,84.87,0,0,1,1087.691,57.5L1069.47,74.062a65.675,65.675,0,0,0-19.547-13.914,55.4,55.4,0,0,0-23.853-5.3,56.256,56.256,0,0,0-22.86,4.654,59.887,59.887,0,0,0-18.551,12.625,58.088,58.088,0,0,0-16.9,41.195,58.5,58.5,0,0,0,4.473,22.927,57.7,57.7,0,0,0,53.835,35.546v24.847a80.631,80.631,0,0,1-32.467-6.61,83.013,83.013,0,0,1-44.15-44.305,81.189,81.189,0,0,1-6.537-32.4,79.988,79.988,0,0,1,6.537-32.234,86.793,86.793,0,0,1,17.724-26.452A82.667,82.667,0,0,1,993.6,36.616,80.619,80.619,0,0,1,1026.07,30m0-10a90.925,90.925,0,0,0-36.45,7.443,93.009,93.009,0,0,0-29.584,20.191A97.187,97.187,0,0,0,940.281,77.1a90.32,90.32,0,0,0-7.365,36.219,91.5,91.5,0,0,0,7.349,36.353,93.009,93.009,0,0,0,49.357,49.53,90.916,90.916,0,0,0,36.448,7.437,10,10,0,0,0,10-10V171.794a10,10,0,0,0-10-10,47.665,47.665,0,0,1-44.618-29.424,48.862,48.862,0,0,1-3.69-19.049A48.088,48.088,0,0,1,991.74,79.187a50.208,50.208,0,0,1,15.487-10.528,46.571,46.571,0,0,1,18.843-3.812,45.1,45.1,0,0,1,19.6,4.351A56.029,56.029,0,0,1,1062.264,81a10,10,0,0,0,13.933.466L1094.418,64.9a10,10,0,0,0,.689-14.108,95.193,95.193,0,0,0-30.51-22.325A90.24,90.24,0,0,0,1026.07,20Z"/>
            </g>
            <g>
              <path d="M1195.356,201.642a5,5,0,0,1-4.481-2.783l-81.83-165.316a5,5,0,0,1,4.482-7.218h27.829a5,5,0,0,1,4.485,2.791l49.088,99.681,47.8-98.026a5,5,0,0,1,4.97-4.446h.994a5,5,0,0,1,5,5v.487l79.654,160.955a5,5,0,0,1-4.481,7.218h-27.828a5,5,0,0,1-4.487-2.792l-47.9-97.318-48.3,96.293v.473a5,5,0,0,1-5,5Z"/>
              <path d="M1248.7,31.325v1.656l80.173,162h-27.828L1248.7,88.639l-53.339,106.346v1.656l-81.83-165.316h27.829l54,109.659v-1.657L1247.7,31.988v-.663h.994m0-10h-.994a10,10,0,0,0-9.78,7.9l-43.015,88.207-44.58-90.528a10,10,0,0,0-8.971-5.582h-27.829a10,10,0,0,0-8.962,14.436l81.83,165.316a10,10,0,0,0,18.933-3.666l43.284-86.3,43.456,88.289a10,10,0,0,0,8.973,5.584h27.828a10,10,0,0,0,8.962-14.436L1258.669,30.588a10,10,0,0,0-9.973-9.263Z"/>
            </g>
            <g>
              <path d="M1492.526,200.647a5,5,0,0,1-5-5V113.352a52.288,52.288,0,0,0-52.646-52.511,51.629,51.629,0,0,0-20.4,4.06,52.737,52.737,0,0,0-16.653,11.163,54.428,54.428,0,0,0-11.377,16.8,50.567,50.567,0,0,0-4.217,20.454,49.379,49.379,0,0,0,4.2,20.263,54.232,54.232,0,0,0,28.105,28.023,49.824,49.824,0,0,0,20.336,4.193,5,5,0,0,1,5,5v24.847a5,5,0,0,1-5,5,85.618,85.618,0,0,1-33.939-6.864,87.731,87.731,0,0,1-46.689-46.689,85.643,85.643,0,0,1-6.864-33.939,84.313,84.313,0,0,1,6.884-33.8,88.26,88.26,0,0,1,46.77-46.5,88.237,88.237,0,0,1,67.811-.177,88.426,88.426,0,0,1,27.788,18.436,86.585,86.585,0,0,1,25.732,62.039v82.492a5,5,0,0,1-5,5Z"/>
              <path d="M1435.045,30.994a81.289,81.289,0,0,1,31.868,6.3,83.025,83.025,0,0,1,26.223,17.393,81.586,81.586,0,0,1,24.237,58.473v82.492h-24.847V113.352a57.286,57.286,0,0,0-57.646-57.511,56.339,56.339,0,0,0-22.362,4.462A57.459,57.459,0,0,0,1394.3,72.525a59.106,59.106,0,0,0-12.423,18.335,55.254,55.254,0,0,0-4.638,22.461,54.1,54.1,0,0,0,4.638,22.3,59.218,59.218,0,0,0,30.645,30.557,54.535,54.535,0,0,0,22.362,4.622v24.847a80.286,80.286,0,0,1-31.969-6.46,82.728,82.728,0,0,1-44.063-44.062,80.309,80.309,0,0,1-6.46-31.97,78.974,78.974,0,0,1,6.47-31.8,83.271,83.271,0,0,1,44.15-43.9,80.6,80.6,0,0,1,32.037-6.46m0-10a90.909,90.909,0,0,0-35.969,7.266,93.27,93.27,0,0,0-49.39,49.106,89.269,89.269,0,0,0-7.3,35.789,90.612,90.612,0,0,0,7.269,35.91,92.727,92.727,0,0,0,49.316,49.314,90.579,90.579,0,0,0,35.907,7.268,10,10,0,0,0,10-10V170.8a10,10,0,0,0-10-10,44.243,44.243,0,0,1-18.308-3.764,49.229,49.229,0,0,1-25.565-25.485,43.818,43.818,0,0,1-3.772-18.23,44.968,44.968,0,0,1,3.794-18.442,49.463,49.463,0,0,1,10.328-15.273A47.756,47.756,0,0,1,1416.445,69.5a46.654,46.654,0,0,1,18.435-3.659,47.9,47.9,0,0,1,33.855,13.776,47.628,47.628,0,0,1,13.791,33.735v82.295a10,10,0,0,0,10,10h24.847a10,10,0,0,0,10-10V113.155a91.593,91.593,0,0,0-27.225-65.6A93.39,93.39,0,0,0,1470.8,28.074a91.61,91.61,0,0,0-35.752-7.08Z"/>
            </g>
            <g>
              <path d="M1623.384,200.317a5,5,0,0,1-4.482-2.786l-80.836-163.66a5,5,0,0,1,4.483-7.215h27.5a5,5,0,0,1,4.489,2.8l48.4,98.6,16.153-33.63a5,5,0,0,1,4.507-2.835h28.491a5,5,0,0,1,4.469,7.243l-48.169,96.011v.472a5,5,0,0,1-5,5Z"/>
              <path d="M1570.047,31.656l53.338,108.665v-1.656l20.209-42.075h28.491l-48.7,97.07v1.656l-80.836-163.66h27.5m0-10h-27.5a10,10,0,0,0-8.966,14.429l80.836,163.66a10,10,0,0,0,18.937-3.659l47.668-95.011a10,10,0,0,0-8.939-14.485h-28.491a10,10,0,0,0-9.014,5.671l-11.695,24.347L1579.024,27.25a10,10,0,0,0-8.977-5.594Z"/>
            </g>
            <g>
              <path d="M1780.085,201.973a86.455,86.455,0,0,1-34.271-6.865,87.74,87.74,0,0,1-46.689-46.689,88.156,88.156,0,0,1,0-68.209,88.592,88.592,0,0,1,18.785-27.9,90.945,90.945,0,0,1,27.861-18.932,86.233,86.233,0,0,1,68.3,0,89.843,89.843,0,0,1,46.793,46.791,83.935,83.935,0,0,1,7.05,33.984v15.9a5,5,0,0,1-5,5h-82.824a5,5,0,0,1-5-5V105.2a5,5,0,0,1,5-5h52.643a37.069,37.069,0,0,0-3.61-11.647,43.461,43.461,0,0,0-11.155-13.968,59.553,59.553,0,0,0-37.878-13.417,53.476,53.476,0,0,0-20.915,4.079,51.007,51.007,0,0,0-16.758,11.314,54.353,54.353,0,0,0-11.225,17,52.7,52.7,0,0,0-4.079,20.585,53.487,53.487,0,0,0,4.079,20.915,51.343,51.343,0,0,0,27.981,27.981,53.476,53.476,0,0,0,20.917,4.08,5,5,0,0,1,5,5v24.848A5,5,0,0,1,1780.085,201.973Z"/>
              <path d="M1780.085,31.325a78.625,78.625,0,0,1,31.97,6.626,84.851,84.851,0,0,1,44.228,44.228,78.6,78.6,0,0,1,6.626,31.97v15.9h-82.824V105.2h57.977a41.672,41.672,0,0,0-4.473-18.884,48.188,48.188,0,0,0-12.423-15.571,64.549,64.549,0,0,0-41.081-14.577,58.185,58.185,0,0,0-22.859,4.473,55.717,55.717,0,0,0-18.388,12.423,59.035,59.035,0,0,0-12.257,18.553,57.366,57.366,0,0,0-4.473,22.528,58.181,58.181,0,0,0,4.473,22.859,56.332,56.332,0,0,0,30.645,30.645,58.184,58.184,0,0,0,22.859,4.472v24.848a81.11,81.11,0,0,1-32.3-6.461,82.737,82.737,0,0,1-44.063-44.062,83.158,83.158,0,0,1,0-64.271,83.211,83.211,0,0,1,17.725-26.338,85.578,85.578,0,0,1,26.338-17.89,79.4,79.4,0,0,1,32.3-6.626m0-10A89.708,89.708,0,0,0,1743.76,28.8a95.934,95.934,0,0,0-29.385,19.974,93.561,93.561,0,0,0-19.845,29.469,93.153,93.153,0,0,0,0,72.151,92.736,92.736,0,0,0,49.316,49.314,91.414,91.414,0,0,0,36.239,7.269,10,10,0,0,0,10-10V172.125a10,10,0,0,0-10-10,48.526,48.526,0,0,1-18.971-3.685,46.341,46.341,0,0,1-25.319-25.317,48.523,48.523,0,0,1-3.687-18.974,47.717,47.717,0,0,1,3.687-18.643,49.34,49.34,0,0,1,10.188-15.441,46.03,46.03,0,0,1,15.129-10.206,48.508,48.508,0,0,1,18.973-3.687,54.547,54.547,0,0,1,34.68,12.261,37.923,37.923,0,0,1,9.88,12.359,33.209,33.209,0,0,1,1.831,4.412h-46.391a10,10,0,0,0-10,10v24.847a10,10,0,0,0,10,10h82.824a10,10,0,0,0,10-10v-15.9a88.918,88.918,0,0,0-7.471-35.992A94.835,94.835,0,0,0,1816.082,28.8a88.938,88.938,0,0,0-36-7.473Z"/>
            </g>
          </g>
          <g>
            <g>
              <path class="e48678e3-e2ea-4043-9ad9-2dcef88ef9b1" d="M93.155,181.641A85.96,85.96,0,0,1,58.7,174.617,88.012,88.012,0,0,1,11.944,127.7,86.523,86.523,0,0,1,5,93.321a85.343,85.343,0,0,1,6.952-34.227A92.184,92.184,0,0,1,30.693,31.133a88.019,88.019,0,0,1,28-19.1,87.429,87.429,0,0,1,70.865.963,90.254,90.254,0,0,1,28.922,21.151,5,5,0,0,1-.345,7.054L139.918,57.762a5,5,0,0,1-6.966-.233,61,61,0,0,0-18.075-12.858,50.69,50.69,0,0,0-21.722-4.824,51.529,51.529,0,0,0-20.85,4.233A55.2,55.2,0,0,0,55.284,55.656,53.1,53.1,0,0,0,39.847,93.321a53.8,53.8,0,0,0,4.082,20.988,52.7,52.7,0,0,0,49.226,32.485,5,5,0,0,1,5,5v24.847A5,5,0,0,1,93.155,181.641Z"/>
              <path d="M93.155,10a79.968,79.968,0,0,1,34.289,7.521A84.87,84.87,0,0,1,154.776,37.5L136.555,54.062a65.688,65.688,0,0,0-19.547-13.914,55.405,55.405,0,0,0-23.853-5.3A56.247,56.247,0,0,0,70.3,39.5,59.907,59.907,0,0,0,51.743,52.126a58.093,58.093,0,0,0-16.9,41.2,58.5,58.5,0,0,0,4.473,22.927,57.7,57.7,0,0,0,53.835,35.546v24.847a80.631,80.631,0,0,1-32.467-6.61,83.013,83.013,0,0,1-44.15-44.305A81.19,81.19,0,0,1,10,93.321a79.988,79.988,0,0,1,6.538-32.234A86.775,86.775,0,0,1,34.262,34.635,82.667,82.667,0,0,1,60.688,16.616,80.619,80.619,0,0,1,93.155,10m0-10a90.925,90.925,0,0,0-36.45,7.443A93.009,93.009,0,0,0,27.121,27.634,97.163,97.163,0,0,0,7.366,57.1,90.3,90.3,0,0,0,0,93.321a91.493,91.493,0,0,0,7.351,36.354A93.005,93.005,0,0,0,56.707,179.2a90.916,90.916,0,0,0,36.448,7.437,10,10,0,0,0,10-10V151.794a10,10,0,0,0-10-10A47.665,47.665,0,0,1,48.537,112.37a48.855,48.855,0,0,1-3.69-19.049A48.088,48.088,0,0,1,58.825,59.187,50.215,50.215,0,0,1,74.312,48.659a46.571,46.571,0,0,1,18.843-3.812,45.11,45.11,0,0,1,19.6,4.351A56.024,56.024,0,0,1,129.349,61a10,10,0,0,0,13.932.466L161.5,44.9a10,10,0,0,0,.689-14.108A95.193,95.193,0,0,0,131.681,8.464,90.232,90.232,0,0,0,93.155,0Z"/>
            </g>
            <g>
              <path class="e48678e3-e2ea-4043-9ad9-2dcef88ef9b1" d="M263.105,180.647a5,5,0,0,1-5-5V150.8a5,5,0,0,1,5-5,52.146,52.146,0,0,0,48.577-31.921,51.458,51.458,0,0,0,4.068-20.393,52.317,52.317,0,0,0-52.645-52.645,51.46,51.46,0,0,0-20.394,4.068,52.469,52.469,0,0,0-31.92,48.577,5,5,0,0,1-5,5H180.943a5,5,0,0,1-5-5,85.669,85.669,0,0,1,6.865-33.939,88.177,88.177,0,0,1,46.5-46.681,84.468,84.468,0,0,1,33.793-6.872,85.659,85.659,0,0,1,33.938,6.864,87.733,87.733,0,0,1,46.689,46.688,88.152,88.152,0,0,1,0,68.212,86.587,86.587,0,0,1-18.81,27.763,87.923,87.923,0,0,1-61.817,25.126Z"/>
              <path d="M263.105,10.994a80.312,80.312,0,0,1,31.97,6.46,82.731,82.731,0,0,1,44.062,44.062,80.312,80.312,0,0,1,6.46,31.97,81.655,81.655,0,0,1-24.184,58.474,82.921,82.921,0,0,1-58.308,23.687V150.8a57.147,57.147,0,0,0,53.173-34.951,56.174,56.174,0,0,0,4.472-22.363,57.316,57.316,0,0,0-57.645-57.645,56.181,56.181,0,0,0-22.363,4.472,57.469,57.469,0,0,0-34.951,53.173H180.943a80.313,80.313,0,0,1,6.461-31.97,83.175,83.175,0,0,1,43.9-44.062,79.123,79.123,0,0,1,31.805-6.46m0-10a89.446,89.446,0,0,0-35.781,7.284,93.177,93.177,0,0,0-49.111,49.3,90.642,90.642,0,0,0-7.27,35.91,10,10,0,0,0,10,10h24.848a10,10,0,0,0,10-10,47.147,47.147,0,0,1,28.89-43.981,46.5,46.5,0,0,1,18.424-3.664A47.317,47.317,0,0,1,310.75,93.486a46.491,46.491,0,0,1-3.664,18.424,47.471,47.471,0,0,1-43.981,28.89,10,10,0,0,0-10,10v24.847a10,10,0,0,0,10,10,91.756,91.756,0,0,0,85.224-55.921,93.157,93.157,0,0,0,0-72.148A92.736,92.736,0,0,0,299.014,8.263,90.633,90.633,0,0,0,263.105.994Z"/>
            </g>
            <g>
              <path class="e48678e3-e2ea-4043-9ad9-2dcef88ef9b1" d="M453.6,180.979a5,5,0,0,1-5-5V151.794a5,5,0,0,1,5-5c3.541,0,8.5.11,15.159.334q1.305.045,2.6.045a75.108,75.108,0,0,0,15.366-1.6,35.979,35.979,0,0,0,14.5-6.38c3.376-2.556,5.017-6.67,5.017-12.579,0-4.329-.972-7.735-2.888-10.125a20.861,20.861,0,0,0-8.213-6.158,38.827,38.827,0,0,0-11.764-2.924c-4.6-.425-8.972-.64-12.983-.64h-42.5a84.594,84.594,0,0,1-25.062-3.523,60.26,60.26,0,0,1-19.9-10.281,47.137,47.137,0,0,1-13.166-16.422,48.493,48.493,0,0,1-4.649-21.316c0-9.628,2.444-17.842,7.263-24.413a50.88,50.88,0,0,1,17.976-15.186,86.578,86.578,0,0,1,23.381-7.894,131.486,131.486,0,0,1,24.627-2.4h97.732a5,5,0,0,1,5,5V35.178a5,5,0,0,1-4.969,5l-108.061.666c-1.957.23-4.71.606-8.187,1.118a51.53,51.53,0,0,0-10.108,2.585,23.45,23.45,0,0,0-7.929,4.817,8.274,8.274,0,0,0-2.541,6.52c0,6.068,2.1,9.7,6.8,11.793,5.864,2.606,13.171,4.033,21.719,4.244H452.6c3.973,0,8.8.11,14.767.335a156.194,156.194,0,0,1,18.489,1.876,127.57,127.57,0,0,1,19.145,4.64,59.506,59.506,0,0,1,17.9,9.381A48.029,48.029,0,0,1,536.034,103.8c3.355,6.315,5.057,14.046,5.057,22.979,0,8.73-1.708,16.308-5.077,22.525a47.685,47.685,0,0,1-12.952,15.29,62.9,62.9,0,0,1-17.452,9.33,110.68,110.68,0,0,1-19.086,4.842,153.562,153.562,0,0,1-18.321,1.876C462.577,180.866,457.662,180.979,453.6,180.979Z"/>
              <path d="M536.091,10.331V35.178l-108.334.668q-2.981.342-8.613,1.17a56.155,56.155,0,0,0-11.1,2.837,28.306,28.306,0,0,0-9.607,5.844A13.224,13.224,0,0,0,394.3,55.884q0,12.019,9.774,16.363t23.687,4.674H452.6q5.964,0,14.578.332a150.351,150.351,0,0,1,17.889,1.817,121.752,121.752,0,0,1,18.388,4.457,54.221,54.221,0,0,1,16.4,8.588,42.859,42.859,0,0,1,11.761,14.033q4.473,8.417,4.473,20.633,0,11.889-4.473,20.142a42.5,42.5,0,0,1-11.6,13.7,57.618,57.618,0,0,1-16.068,8.583,105.216,105.216,0,0,1-18.221,4.623,147.918,147.918,0,0,1-17.724,1.816q-8.448.335-14.411.332V151.794q5.325,0,14.99.331,1.386.048,2.769.048a79.806,79.806,0,0,0,16.39-1.7,40.737,40.737,0,0,0,16.5-7.288q7-5.3,7-16.565,0-8.277-3.986-13.252a25.966,25.966,0,0,0-10.131-7.62,43.56,43.56,0,0,0-13.282-3.313q-7.145-.66-13.449-.662h-42.5a79.265,79.265,0,0,1-23.579-3.3,55.051,55.051,0,0,1-18.263-9.41A41.98,41.98,0,0,1,374.264,74.37a43.353,43.353,0,0,1-4.152-19.143q0-12.873,6.295-21.456a45.727,45.727,0,0,1,16.233-13.7,81.173,81.173,0,0,1,22.031-7.428,125.886,125.886,0,0,1,23.688-2.314h97.732m0-10H438.359a136.505,136.505,0,0,0-25.567,2.492,91.569,91.569,0,0,0-24.729,8.359,55.86,55.86,0,0,0-19.722,16.677c-5.46,7.445-8.229,16.654-8.229,27.368a53.451,53.451,0,0,0,5.151,23.5,52.083,52.083,0,0,0,14.546,18.147,65.223,65.223,0,0,0,21.538,11.147,89.54,89.54,0,0,0,26.545,3.748h42.5c3.859,0,8.074.208,12.529.62a33.81,33.81,0,0,1,10.244,2.538,15.96,15.96,0,0,1,6.292,4.7c1.181,1.473,1.783,3.827,1.783,6.99,0,6.3-2.2,7.963-3.034,8.591a30.6,30.6,0,0,1-12.511,5.474,70.148,70.148,0,0,1-14.341,1.492c-.8,0-1.619-.014-2.423-.042-6.724-.226-11.738-.337-15.336-.337a10,10,0,0,0-10,10v24.185a10,10,0,0,0,10,10c4.129,0,9.111-.114,14.806-.339A158.749,158.749,0,0,0,487.32,183.7a115.7,115.7,0,0,0,19.944-5.059A67.9,67.9,0,0,0,526.1,168.569a52.628,52.628,0,0,0,14.313-16.882c3.77-6.955,5.681-15.335,5.681-24.906,0-9.76-1.9-18.281-5.642-25.326a52.994,52.994,0,0,0-14.487-17.261,64.471,64.471,0,0,0-19.4-10.173,132.328,132.328,0,0,0-19.9-4.824,160.938,160.938,0,0,0-19.09-1.937c-6.037-.228-10.929-.339-14.965-.339H427.882c-7.862-.2-14.507-1.482-19.752-3.812-2.021-.9-3.834-2.125-3.834-7.225,0-1.982.588-2.527.94-2.853a18.228,18.228,0,0,1,6.251-3.789,46.477,46.477,0,0,1,9.128-2.335c3.26-.481,5.867-.839,7.756-1.064l107.782-.665a10,10,0,0,0,9.938-10V10.331a10,10,0,0,0-10-10Z"/>
            </g>
            <g>
              <path class="e48678e3-e2ea-4043-9ad9-2dcef88ef9b1" d="M844.194,180.979a5,5,0,0,1-5-5V92.824A53.363,53.363,0,0,0,835.1,71.913a51.11,51.11,0,0,0-11.349-16.758A54.546,54.546,0,0,0,806.7,43.929a53.775,53.775,0,0,0-20.982-4.082,51.779,51.779,0,0,0-20.465,4.07,55.1,55.1,0,0,0-16.912,11.239,53.268,53.268,0,0,0-11.538,16.818,51.565,51.565,0,0,0-4.227,20.85v83.155a5,5,0,0,1-5,5H702.731a5,5,0,0,1-5-5V92.824a53.515,53.515,0,0,0-4.08-20.917,51.337,51.337,0,0,0-27.981-27.98,55.656,55.656,0,0,0-41.831,0,54.374,54.374,0,0,0-17,11.225,51.082,51.082,0,0,0-11.314,16.757,53.517,53.517,0,0,0-4.079,20.916,5,5,0,0,1-5,5H561.6a5,5,0,0,1-5-5,84.678,84.678,0,0,1,7.048-34.314,88.985,88.985,0,0,1,46.817-46.559A85.609,85.609,0,0,1,644.755,5a87.453,87.453,0,0,1,70.663,35.241,92.484,92.484,0,0,1,27.026-23.788A84.792,84.792,0,0,1,785.886,5a86,86,0,0,1,34.458,7.029,89.3,89.3,0,0,1,46.978,46.71A88.554,88.554,0,0,1,874.7,92.892c0,.046-.661,83.127-.661,83.127a5,5,0,0,1-5,4.96Z"/>
              <path d="M785.886,10a80.653,80.653,0,0,1,32.467,6.616,84.3,84.3,0,0,1,44.394,44.139A83.219,83.219,0,0,1,869.7,92.989l-.663,82.99H844.194V92.824a58.056,58.056,0,0,0-4.488-22.86,55.835,55.835,0,0,0-12.459-18.386,59.285,59.285,0,0,0-18.6-12.258,58.487,58.487,0,0,0-22.921-4.473,56.468,56.468,0,0,0-22.43,4.473,59.768,59.768,0,0,0-18.438,12.258,57.961,57.961,0,0,0-12.626,18.386,56.286,56.286,0,0,0-4.648,22.86v83.155H702.731V92.824a58.242,58.242,0,0,0-4.472-22.86A56.343,56.343,0,0,0,667.614,39.32a60.649,60.649,0,0,0-45.719,0,59.045,59.045,0,0,0-18.552,12.258,55.8,55.8,0,0,0-12.424,18.386,58.224,58.224,0,0,0-4.472,22.86H561.6a79.34,79.34,0,0,1,6.626-32.3,83.985,83.985,0,0,1,44.228-43.984A80.27,80.27,0,0,1,644.755,10,81.294,81.294,0,0,1,686,20.767,80.338,80.338,0,0,1,715.32,49.093a86.752,86.752,0,0,1,29.651-28.326A79.49,79.49,0,0,1,785.886,10m0-10A89.718,89.718,0,0,0,739.92,12.137a98.022,98.022,0,0,0-24.443,20.13A92.689,92.689,0,0,0,690.989,12.1,91.537,91.537,0,0,0,644.755,0a90.588,90.588,0,0,0-36.281,7.364,93.992,93.992,0,0,0-49.4,49.135A89.642,89.642,0,0,0,551.6,92.824a10,10,0,0,0,10,10h24.847a10,10,0,0,0,10-10,48.541,48.541,0,0,1,3.687-18.974A46.093,46.093,0,0,1,610.34,58.722a49.35,49.35,0,0,1,15.441-10.188,50.663,50.663,0,0,1,37.947,0,46.343,46.343,0,0,1,25.317,25.318,48.549,48.549,0,0,1,3.686,18.972v83.155a10,10,0,0,0,10,10h24.848a10,10,0,0,0,10-10V92.824a46.6,46.6,0,0,1,3.806-18.843,48.275,48.275,0,0,1,10.454-15.249A50.107,50.107,0,0,1,767.22,48.516a46.782,46.782,0,0,1,18.5-3.669,48.832,48.832,0,0,1,19.043,3.69,49.591,49.591,0,0,1,15.5,10.2A46.118,46.118,0,0,1,830.5,73.863a48.377,48.377,0,0,1,3.7,18.961v83.155a10,10,0,0,0,10,10h24.847a10,10,0,0,0,10-9.92l.663-82.99c0-.091,0-.183,0-.274a93.522,93.522,0,0,0-7.8-36.068A94.292,94.292,0,0,0,822.336,7.443,90.967,90.967,0,0,0,785.886,0Z"/>
            </g>
            <g>
              <rect class="e48678e3-e2ea-4043-9ad9-2dcef88ef9b1" x="888.557" y="5.994" width="34.847" height="175.647" rx="5"/>
              <path d="M918.4,10.994V176.641H893.557V10.994H918.4m0-10H893.557a10,10,0,0,0-10,10V176.641a10,10,0,0,0,10,10H918.4a10,10,0,0,0,10-10V10.994a10,10,0,0,0-10-10Z"/>
            </g>
            <g>
              <path class="e48678e3-e2ea-4043-9ad9-2dcef88ef9b1" d="M1026.07,181.641a85.952,85.952,0,0,1-34.458-7.024A88.009,88.009,0,0,1,944.859,127.7a86.519,86.519,0,0,1-6.943-34.379A85.334,85.334,0,0,1,944.867,59.1a92.213,92.213,0,0,1,18.741-27.962,88.013,88.013,0,0,1,28.005-19.1,87.427,87.427,0,0,1,70.864.963A90.2,90.2,0,0,1,1091.4,34.144a5,5,0,0,1-.345,7.053l-18.221,16.565a5,5,0,0,1-6.966-.233,61.016,61.016,0,0,0-18.075-12.858,50.686,50.686,0,0,0-21.722-4.824,51.538,51.538,0,0,0-20.851,4.233A55.2,55.2,0,0,0,988.2,55.656a53.08,53.08,0,0,0-15.438,37.665,53.822,53.822,0,0,0,4.081,20.988,52.7,52.7,0,0,0,49.227,32.485,5,5,0,0,1,5,5v24.847A5,5,0,0,1,1026.07,181.641Z"/>
              <path d="M1026.07,10a79.968,79.968,0,0,1,34.289,7.521A84.87,84.87,0,0,1,1087.691,37.5L1069.47,54.062a65.675,65.675,0,0,0-19.547-13.914,55.4,55.4,0,0,0-23.853-5.3,56.256,56.256,0,0,0-22.86,4.654,59.887,59.887,0,0,0-18.551,12.625,58.088,58.088,0,0,0-16.9,41.2,58.5,58.5,0,0,0,4.473,22.927,57.7,57.7,0,0,0,53.835,35.546v24.847a80.631,80.631,0,0,1-32.467-6.61,83.013,83.013,0,0,1-44.15-44.305,81.189,81.189,0,0,1-6.537-32.4,79.988,79.988,0,0,1,6.537-32.234,86.793,86.793,0,0,1,17.724-26.452A82.667,82.667,0,0,1,993.6,16.616,80.619,80.619,0,0,1,1026.07,10m0-10a90.925,90.925,0,0,0-36.45,7.443,93.009,93.009,0,0,0-29.584,20.191A97.187,97.187,0,0,0,940.281,57.1a90.32,90.32,0,0,0-7.365,36.219,91.5,91.5,0,0,0,7.349,36.353,93.009,93.009,0,0,0,49.357,49.53,90.916,90.916,0,0,0,36.448,7.437,10,10,0,0,0,10-10V151.794a10,10,0,0,0-10-10,47.665,47.665,0,0,1-44.618-29.424,48.862,48.862,0,0,1-3.69-19.049A48.088,48.088,0,0,1,991.74,59.187a50.208,50.208,0,0,1,15.487-10.528,46.571,46.571,0,0,1,18.843-3.812,45.1,45.1,0,0,1,19.6,4.351A56.029,56.029,0,0,1,1062.264,61a10,10,0,0,0,13.933.466L1094.418,44.9a10,10,0,0,0,.689-14.108A95.193,95.193,0,0,0,1064.6,8.464,90.24,90.24,0,0,0,1026.07,0Z"/>
            </g>
            <g>
              <path class="e48678e3-e2ea-4043-9ad9-2dcef88ef9b1" d="M1195.356,181.642a5,5,0,0,1-4.481-2.783l-81.83-165.316a5,5,0,0,1,4.482-7.218h27.829a5,5,0,0,1,4.485,2.791l49.088,99.681,47.8-98.026a5,5,0,0,1,4.97-4.446h.994a5,5,0,0,1,5,5v.487l79.654,160.955a5,5,0,0,1-4.481,7.218h-27.828a5,5,0,0,1-4.487-2.792l-47.9-97.318-48.3,96.293v.473a5,5,0,0,1-5,5Z"/>
              <path d="M1248.7,11.325v1.656l80.173,162h-27.828L1248.7,68.639l-53.339,106.346v1.656l-81.83-165.316h27.829l54,109.659v-1.657L1247.7,11.988v-.663h.994m0-10h-.994a10,10,0,0,0-9.78,7.9l-43.015,88.207-44.58-90.528a10,10,0,0,0-8.971-5.582h-27.829a10,10,0,0,0-8.962,14.436l81.83,165.316a10,10,0,0,0,18.933-3.666l43.284-86.3,43.456,88.289a10,10,0,0,0,8.973,5.584h27.828a10,10,0,0,0,8.962-14.436L1258.669,10.588a10,10,0,0,0-9.973-9.263Z"/>
            </g>
            <g>
              <path class="e48678e3-e2ea-4043-9ad9-2dcef88ef9b1" d="M1492.526,180.647a5,5,0,0,1-5-5V93.352a52.288,52.288,0,0,0-52.646-52.511,51.629,51.629,0,0,0-20.4,4.06,52.737,52.737,0,0,0-16.653,11.163,54.428,54.428,0,0,0-11.377,16.8,50.567,50.567,0,0,0-4.217,20.454,49.379,49.379,0,0,0,4.2,20.263,54.232,54.232,0,0,0,28.105,28.023,49.824,49.824,0,0,0,20.336,4.193,5,5,0,0,1,5,5v24.847a5,5,0,0,1-5,5,85.618,85.618,0,0,1-33.939-6.864,87.731,87.731,0,0,1-46.689-46.689,85.643,85.643,0,0,1-6.864-33.939,84.313,84.313,0,0,1,6.884-33.8,88.26,88.26,0,0,1,46.77-46.5,88.237,88.237,0,0,1,67.811-.177,88.426,88.426,0,0,1,27.788,18.436,86.585,86.585,0,0,1,25.732,62.039v82.492a5,5,0,0,1-5,5Z"/>
              <path d="M1435.045,10.994a81.289,81.289,0,0,1,31.868,6.3,83.025,83.025,0,0,1,26.223,17.393,81.586,81.586,0,0,1,24.237,58.473v82.492h-24.847V93.352a57.286,57.286,0,0,0-57.646-57.511,56.339,56.339,0,0,0-22.362,4.462A57.459,57.459,0,0,0,1394.3,52.525a59.106,59.106,0,0,0-12.423,18.335,55.254,55.254,0,0,0-4.638,22.461,54.1,54.1,0,0,0,4.638,22.3,59.218,59.218,0,0,0,30.645,30.557,54.535,54.535,0,0,0,22.362,4.622v24.847a80.286,80.286,0,0,1-31.969-6.46,82.728,82.728,0,0,1-44.063-44.062,80.309,80.309,0,0,1-6.46-31.97,78.974,78.974,0,0,1,6.47-31.8,83.271,83.271,0,0,1,44.15-43.9,80.6,80.6,0,0,1,32.037-6.46m0-10a90.909,90.909,0,0,0-35.969,7.266,93.27,93.27,0,0,0-49.39,49.106,89.269,89.269,0,0,0-7.3,35.789,90.612,90.612,0,0,0,7.269,35.91,92.727,92.727,0,0,0,49.316,49.314,90.579,90.579,0,0,0,35.907,7.268,10,10,0,0,0,10-10V150.8a10,10,0,0,0-10-10,44.243,44.243,0,0,1-18.308-3.764,49.229,49.229,0,0,1-25.565-25.485,43.818,43.818,0,0,1-3.772-18.23,44.968,44.968,0,0,1,3.794-18.442,49.463,49.463,0,0,1,10.328-15.273A47.756,47.756,0,0,1,1416.445,49.5a46.654,46.654,0,0,1,18.435-3.659,47.9,47.9,0,0,1,33.855,13.776,47.628,47.628,0,0,1,13.791,33.735v82.295a10,10,0,0,0,10,10h24.847a10,10,0,0,0,10-10V93.155a91.593,91.593,0,0,0-27.225-65.6A93.39,93.39,0,0,0,1470.8,8.074a91.61,91.61,0,0,0-35.752-7.08Z"/>
            </g>
            <g>
              <path class="e48678e3-e2ea-4043-9ad9-2dcef88ef9b1" d="M1623.384,180.317a5,5,0,0,1-4.482-2.786l-80.836-163.66a5,5,0,0,1,4.483-7.215h27.5a5,5,0,0,1,4.489,2.8l48.4,98.6,16.153-33.63a5,5,0,0,1,4.507-2.835h28.491a5,5,0,0,1,4.469,7.243l-48.169,96.011v.472a5,5,0,0,1-5,5Z"/>
              <path d="M1570.047,11.656l53.338,108.665v-1.656l20.209-42.075h28.491l-48.7,97.07v1.656l-80.836-163.66h27.5m0-10h-27.5a10,10,0,0,0-8.966,14.429l80.836,163.66a10,10,0,0,0,18.937-3.659l47.668-95.011a10,10,0,0,0-8.939-14.485h-28.491a10,10,0,0,0-9.014,5.671l-11.695,24.347L1579.024,7.25a10,10,0,0,0-8.977-5.594Z"/>
            </g>
            <g>
              <path class="e48678e3-e2ea-4043-9ad9-2dcef88ef9b1" d="M1780.085,181.973a86.455,86.455,0,0,1-34.271-6.865,87.74,87.74,0,0,1-46.689-46.689,88.156,88.156,0,0,1,0-68.209,88.592,88.592,0,0,1,18.785-27.9,90.945,90.945,0,0,1,27.861-18.932,86.233,86.233,0,0,1,68.3,0,89.843,89.843,0,0,1,46.793,46.791,83.935,83.935,0,0,1,7.05,33.984v15.9a5,5,0,0,1-5,5h-82.824a5,5,0,0,1-5-5V85.2a5,5,0,0,1,5-5h52.643a37.069,37.069,0,0,0-3.61-11.647,43.461,43.461,0,0,0-11.155-13.968,59.553,59.553,0,0,0-37.878-13.417,53.476,53.476,0,0,0-20.915,4.079,51.007,51.007,0,0,0-16.758,11.314,54.353,54.353,0,0,0-11.225,17,52.7,52.7,0,0,0-4.079,20.585,53.487,53.487,0,0,0,4.079,20.915,51.343,51.343,0,0,0,27.981,27.981,53.476,53.476,0,0,0,20.917,4.08,5,5,0,0,1,5,5v24.848A5,5,0,0,1,1780.085,181.973Z"/>
              <path d="M1780.085,11.325a78.625,78.625,0,0,1,31.97,6.626,84.851,84.851,0,0,1,44.228,44.228,78.6,78.6,0,0,1,6.626,31.97v15.9h-82.824V85.2h57.977a41.672,41.672,0,0,0-4.473-18.884,48.188,48.188,0,0,0-12.423-15.571,64.549,64.549,0,0,0-41.081-14.577,58.185,58.185,0,0,0-22.859,4.473,55.717,55.717,0,0,0-18.388,12.423,59.035,59.035,0,0,0-12.257,18.553,57.366,57.366,0,0,0-4.473,22.528,58.181,58.181,0,0,0,4.473,22.859,56.332,56.332,0,0,0,30.645,30.645,58.184,58.184,0,0,0,22.859,4.472v24.848a81.11,81.11,0,0,1-32.3-6.461,82.737,82.737,0,0,1-44.063-44.062,81.123,81.123,0,0,1-6.46-32.3,80.326,80.326,0,0,1,6.46-31.97,83.211,83.211,0,0,1,17.725-26.338,85.578,85.578,0,0,1,26.338-17.89,79.4,79.4,0,0,1,32.3-6.626m0-10A89.708,89.708,0,0,0,1743.76,8.8a95.934,95.934,0,0,0-29.385,19.974,93.561,93.561,0,0,0-19.845,29.469,93.153,93.153,0,0,0,0,72.151,92.736,92.736,0,0,0,49.316,49.314,91.414,91.414,0,0,0,36.239,7.269,10,10,0,0,0,10-10V152.125a10,10,0,0,0-10-10,48.526,48.526,0,0,1-18.971-3.685,46.341,46.341,0,0,1-25.319-25.317,48.523,48.523,0,0,1-3.687-18.974,47.717,47.717,0,0,1,3.687-18.643,49.34,49.34,0,0,1,10.188-15.441,46.03,46.03,0,0,1,15.129-10.206,48.508,48.508,0,0,1,18.973-3.687,54.547,54.547,0,0,1,34.68,12.261,37.923,37.923,0,0,1,9.88,12.359,33.209,33.209,0,0,1,1.831,4.412h-46.391a10,10,0,0,0-10,10v24.847a10,10,0,0,0,10,10h82.824a10,10,0,0,0,10-10v-15.9a88.918,88.918,0,0,0-7.471-35.992A94.835,94.835,0,0,0,1816.082,8.8a88.938,88.938,0,0,0-36-7.473Z"/>
            </g>
          </g>
        </g>
        <g>
          <g>
            <path d="M1261.89,308.581v33.883h-19.381V310.833c0-6.489-2.28-9.8-7.337-9.8-5.864,0-9.521,4.161-9.521,11.382v30.046h-19.38V265.88h19.38V289.9a24.01,24.01,0,0,1,15.02-5.366C1253.588,284.534,1261.89,294,1261.89,308.581Z"/>
            <path d="M1268.09,318.309V286.2h19.381v31.268c0,5.939,3.192,9.432,8.37,9.432s8.31-3.552,8.31-9.432V286.2h19.381v32.111c0,15.744-11.07,26-27.691,26S1268.09,334.053,1268.09,318.309Z"/>
            <path d="M1389.215,313.8a35.671,35.671,0,0,1-.4,5.131h-41.78c1.268,6.454,5.368,9.791,11.487,9.791,4.527,0,8.309-1.983,10.172-5.276h19.286c-3.959,12.841-15.342,20.864-29.458,20.864-17.556,0-30.562-12.832-30.562-30.021,0-17.25,12.9-29.933,30.562-29.933,18.136,0,30.694,12.939,30.694,29.442Zm-41.838-5.6h22.746c-1.7-5.624-5.753-8.658-11.6-8.658C1352.873,299.54,1348.945,302.609,1347.377,308.2Z"/>
            <path d="M1479.957,307.174v35.29h-19.381V309.57c0-5.876-2.163-8.712-6.281-8.712-5.326,0-8.056,3.669-8.056,10.754v30.852h-18.876V309.57c0-5.7-2.147-8.712-6.205-8.712-5.253,0-8.133,3.758-8.133,10.754v30.852h-19.38V286.2h13.627l2.759,6.046a21.692,21.692,0,0,1,16.447-7.71,18.945,18.945,0,0,1,16.137,8.284,21.943,21.943,0,0,1,17.279-8.284C1471.946,284.534,1479.957,293.924,1479.957,307.174Z"/>
            <path d="M1545.64,313.8a35.671,35.671,0,0,1-.4,5.131h-41.779c1.268,6.454,5.366,9.791,11.486,9.791,4.528,0,8.31-1.983,10.173-5.276h19.286c-3.96,12.841-15.342,20.864-29.459,20.864-17.555,0-30.561-12.832-30.561-30.021,0-17.25,12.9-29.933,30.561-29.933,18.137,0,30.694,12.939,30.694,29.442Zm-41.837-5.6h22.746c-1.7-5.624-5.755-8.658-11.6-8.658C1509.3,299.54,1505.371,302.609,1503.8,308.2Z"/>
            <path d="M1605.688,308.155v34.309h-19.38V310.833c0-6.549-2.461-9.8-7.337-9.8-6.044,0-9.521,4.221-9.521,11.382v30.046h-19.381V286.2h13.6l2.662,5.8a23.389,23.389,0,0,1,17.712-7.466C1597.106,284.534,1605.688,293.82,1605.688,308.155Z"/>
            <path d="M1653.754,325.489v16.975H1640.42c-12.443,0-20.005-7.607-20.005-20.11V301.123h-10.3v-4.53l25.209-26.845h3.98V286.2h14.136v14.925H1639.8v17.906c0,4.029,2.433,6.46,6.521,6.46Z"/>
          </g>
          <g>
            <path d="M1170.851,302.624v26.062h-6.939l-.769-1.843a12.348,12.348,0,0,1-7.864,2.725c-7.969,0-13.666-5.814-13.666-13.913,0-8.072,5.7-13.817,13.666-13.817a12.368,12.368,0,0,1,7.963,2.8l.918-2.015Zm-8.538,13.051a5.835,5.835,0,1,0-5.834,5.944A5.725,5.725,0,0,0,1162.313,315.675Z"/>
            <path d="M1712.435,316.683c0,8.119-5.7,13.912-13.666,13.912a12.185,12.185,0,0,1-6.353-1.73v10.26h-8.874V303.652h6.1l1.125,2.07a12.072,12.072,0,0,1,8-2.925C1706.738,302.8,1712.435,308.563,1712.435,316.683Zm-9.033,0a5.835,5.835,0,1,0-5.833,5.964A5.735,5.735,0,0,0,1703.4,316.682Z"/>
            <path d="M1733.525,303.528v8.215h-3.485c-3.178,0-4.509,1.393-4.509,4.718v13.253h-8.977V303.652h6.014l1.4,2.892a8.7,8.7,0,0,1,7.178-3.016Z"/>
            <path d="M1734.97,316.683c0-8.079,6.115-13.885,14.612-13.885,8.47,0,14.612,5.806,14.612,13.885,0,8.051-6.142,13.885-14.612,13.885C1741.085,330.568,1734.97,324.734,1734.97,316.683Zm14.612,5.821a5.824,5.824,0,1,0-5.62-5.821,5.486,5.486,0,0,0,5.62,5.821Z"/>
            <path d="M1763.469,331.717h2.209c2.119,0,3.244-1.207,3.244-3.449V303.652h8.976v25.359c0,6.679-4.089,10.625-11.055,10.625h-3.374Zm5.521-38.945h8.839v7.618h-8.839Z"/>
            <path d="M1810.4,316.437a16.48,16.48,0,0,1-.185,2.376h-19.352c.587,2.989,2.486,4.535,5.32,4.535a5.232,5.232,0,0,0,4.712-2.444h8.933c-1.834,5.948-7.106,9.664-13.645,9.664-8.131,0-14.155-5.943-14.155-13.9,0-7.99,5.975-13.865,14.155-13.865,8.4,0,14.217,5.993,14.217,13.637Zm-19.379-2.6h10.536a5.237,5.237,0,0,0-5.374-4.01A5.045,5.045,0,0,0,1791.02,313.842Z"/>
            <path d="M1827.376,330.567c-8.358,0-14.391-5.856-14.391-13.92s6.005-13.809,14.419-13.809c7.324,0,12.817,4.617,13.8,11.55h-8.744a5.29,5.29,0,0,0-5.082-3.506c-3.155,0-5.4,2.4-5.4,5.793s2.273,5.848,5.4,5.848a5.253,5.253,0,0,0,5.1-3.8h8.82c-1.015,7.077-6.584,11.847-13.922,11.847Z"/>
            <path d="M1862.513,321.851v7.863h-6.176c-5.764,0-9.267-3.524-9.267-9.315v-9.834h-4.77v-2.1l11.677-12.434h1.844v7.62h6.547v6.913h-6.321v8.294a2.765,2.765,0,0,0,3.021,2.992Z"/>
          </g>
        </g>
      </g>
    </g>
  </g>
</svg>
